<?xml version="1.0" encoding="UTF-8" standalone="no"?>
<!DOCTYPE svg PUBLIC "-//W3C//DTD SVG 1.1//EN" "http://www.w3.org/Graphics/SVG/1.1/DTD/svg11.dtd">
<svg version="1.1" xmlns="http://www.w3.org/2000/svg" xmlns:xlink="http://www.w3.org/1999/xlink" preserveAspectRatio="xMidYMid meet" viewBox="0 0 24 24" width="24" height="24"><defs><path d="M12.79 19.53C15.74 21.67 19.54 22.26 23 21.12C22.27 17.54 19.85 14.52 16.5 13.04C15.96 15.53 14.66 17.8 12.79 19.53Z" id="b3SJ2V9fX"></path><path d="M11.05 19.53C9.17 17.8 7.87 15.53 7.33 13.04C3.98 14.53 1.56 17.54 0.83 21.13C4.3 22.27 8.1 21.67 11.05 19.53Z" id="gG34djfhR"></path><path d="M11.92 18.58C13.6 17.03 14.76 14.99 15.24 12.76C13.08 12.07 10.75 12.07 8.59 12.76C9.07 14.99 10.23 17.03 11.92 18.58Z" id="c3jjLf22FC"></path><path d="M8.14 10.38C8.14 10.76 8.16 11.15 8.2 11.53C10.62 10.76 13.21 10.76 15.63 11.53C15.67 11.15 15.7 10.76 15.7 10.38C15.7 7.16 14.33 4.08 11.92 1.94C9.51 4.08 8.13 7.16 8.14 10.38Z" id="b3LQYZmY2a"></path></defs><g><g><g><use xlink:href="#b3SJ2V9fX" opacity="1" fill="#8dc63f" fill-opacity="1"></use><g><use xlink:href="#b3SJ2V9fX" opacity="1" fill-opacity="0" stroke="#000000" stroke-width="1" stroke-opacity="0"></use></g></g><g><use xlink:href="#gG34djfhR" opacity="1" fill="#00a4e4" fill-opacity="1"></use><g><use xlink:href="#gG34djfhR" opacity="1" fill-opacity="0" stroke="#000000" stroke-width="1" stroke-opacity="0"></use></g></g><g><use xlink:href="#c3jjLf22FC" opacity="1" fill="#bebebe" fill-opacity="1"></use><g><use xlink:href="#c3jjLf22FC" opacity="1" fill-opacity="0" stroke="#000000" stroke-width="1" stroke-opacity="0"></use></g></g><g><use xlink:href="#b3LQYZmY2a" opacity="1" fill="#fdb924" fill-opacity="1"></use><g><use xlink:href="#b3LQYZmY2a" opacity="1" fill-opacity="0" stroke="#000000" stroke-width="1" stroke-opacity="0"></use></g></g></g></g></svg>